<svg id="Layer_1" data-name="Layer 1" xmlns="http://www.w3.org/2000/svg" viewBox="0 0 1462 1196.72" fill="currentColor" ><path d="M367.11-44.34c12.68-.29,25.09-.59,36.1-2s20.62-4.06,30.52-6.75a3.65,3.65,0,0,1,3.79,1.22A3.65,3.65,0,0,1,438-48a135.68,135.68,0,0,1-8.4,15C425.89-27.41,421-21,416.15-14.82l-3.49-5.85.39-.06c12.26-2.05,24.24-4.06,33.91-6.79s17.15-6.18,24.83-9.75a3.67,3.67,0,0,1,4.71,1.47l-.09-.13h0l.08.14c4.62,7.91,8.9,15.19,13.28,19.65,2.85,2.9,5,3.88,6.26,3.88a2.1,2.1,0,0,0,1.67-.87c2.67-3,4.53-11.44,6.65-21.87a3.66,3.66,0,0,1,3.07-2.89A3.65,3.65,0,0,1,511.18-36l.1.18v0h0L511.2-36c5.41,10.26,10.61,20.09,15.95,27s10.64,10.76,16.43,15l-5.46,1.34a69.81,69.81,0,0,1,8.61-13.88c4.41-5.71,13.1-16,21.83-16.72.34,0,.67,0,1,0,9.11,0,15.52,9.55,16.56,16.88,1.22,8.56-4,15.5-9.62,21.13-5.81,5.82-13.14,11.3-22.54,17.39S533,45,521.45,51.79l.25-.15h0l.1-.07c-24.26,18.16-48,36-67.27,63.15s-34.17,64-41.58,96.64c-7.36,32.4-7.28,60.26,8.22,93.82,15.67,33.91,47.1,73.69,77.88,100.05s60.64,39.17,91.1,52.27a3.67,3.67,0,0,1,1.9,1.88h0l.28.62h0c12.78,28.87,25.74,58.18,31.25,83.47,5.58,25.57,3.61,47.24-3.15,62.78-6.89,15.86-18.64,25-36.74,30C566.38,641,543,641.94,525,641.89h-1.39l-4.49,0-4,0h-1c-13.29,0-21.7.92-28.55,8.35-9.12,9.9-15.83,31.32-22.9,54.19l-1.32-4,.09.07h0c3.47,2.57,5.95,4.26,9.34,4.27a11.63,11.63,0,0,0,2.66-.32c5.91-1.35,14.51-7,24.08-13.35a3.65,3.65,0,0,1,4.76.61l-.32-.32h0l.32.32c4.15,4.68,7.85,8.78,13.4,11.58a31.62,31.62,0,0,0,14,3.32,30.42,30.42,0,0,0,6.94-.79c8-1.85,16.36-7.16,25.5-13a3.64,3.64,0,0,1,4.5.45l.1.1c3.85,3.69,7.38,7,14.24,9.69a56.34,56.34,0,0,0,19.21,3.63,35.89,35.89,0,0,0,7.21-.65c8.55-1.69,15.63-7,23.5-13l.28-.2h0a3.69,3.69,0,0,1,3.65-.12h0c9.37,5,18.23,9.66,26.21,11.79a52.83,52.83,0,0,0,13.75,1.65c3,0,5.92-.14,9-.3h0l-2.26,1c11-10.19,20.75-19.41,23.64-30.13,2.29-8.43.42-18.18-1.41-27.41-.49-2.44-1-4.77-1.31-7l0-.58h0l0,.58c-1.69-10.69-.54-17.43.55-23.81a3.68,3.68,0,0,1,2.52-2.88c21.12-6.6,41.33-13,55.42-24S783,564.72,791.58,548l2.49,5.26c-7.64-1.64-15.16-3.26-25.49-4.73l-2.28-.32-2.44-.34c-9.28-1.32-21.21-3.31-28.76-10.8-9.14-9.07-10.77-24.74-3.67-43.41s23.17-41.25,38.82-63.33a3.65,3.65,0,0,1,2.62-1.52c10.65-1.05,21.26-2.06,49.49-12.61,27.43-10.24,71.3-29.42,102.25-43l3.28-1.43c31-13.53,47.2-20.58,68.55-24.9,21.2-4.29,47.39-5.89,73.24-7.47a3.66,3.66,0,0,1,3.83,4.23h0l0,.3h0c-2.12,13.18-4.06,25.77,2.24,44,6.47,18.76,21.67,43.62,38.27,64.32,3.39,4.22,6.79,8.21,10.23,12.26s6.7,7.87,9.92,11.88c9.71,12.11,18.5,25.2,23.77,42.68,8.7,28.88,7.63,69.45,6.63,109.07a3.78,3.78,0,0,1-.39,1.55c-4,8.06-8.61,17.09-25.19,20.65-8.16,1.75-19.31,2.2-30.25,2.64-10.23.42-20.39.84-28.66,2.19-16.91,2.77-25.71,9.42-32.07,18.87-6.6,9.82-10.65,22.76-14.89,36.41l-2-4.42c3.43,1.54,6.15,2.72,9.64,2.72a19,19,0,0,0,6.14-1.07c7.75-2.55,18.86-9.93,30.7-17.82l-.23.17h0a3.67,3.67,0,0,1,4.68.12c8.26,7.23,15.85,13.83,22.92,16.74a22,22,0,0,0,8.34,1.75,19.7,19.7,0,0,0,10-2.73c5.68-3.26,10.63-9.27,16.13-16l-.27.38a3.66,3.66,0,0,1,6.62.9c2,6.75,3.57,11.81,10.2,14.81,4.24,1.92,10.75,3.08,17.22,3.09a39.28,39.28,0,0,0,11.94-1.59c7.22-2.4,9.77-7.65,12.92-14.46a3.66,3.66,0,0,1,5.38-1.5l.18.13c10.81,7.35,20.67,14,29.83,15.5a24.81,24.81,0,0,0,4,.35c7.15,0,13.83-3.33,18.64-10.82,5.86-9.11,8.93-24.36,6.89-39.1a132.82,132.82,0,0,0-3.2-14.76,133.34,133.34,0,0,1-3.2-14.77,42.07,42.07,0,0,1,.57-16.24c3.39-13.38,15.43-26.15,25.63-37.09,1.76-1.88,3.44-3.68,5.09-5.49,11.59-12.72,19.62-23.68,22.36-32.09,2.5-7.67.28-11-2.43-11.89a7.85,7.85,0,0,0-1.66-.33c-.36,0-.75,0-1.18-.06a58.36,58.36,0,0,0-9.92,1.39,76.78,76.78,0,0,1-14.35,1.82,28.26,28.26,0,0,1-5.71-.55C1263,525.13,1255,514,1252.08,504.17c-3.06-10.32-.93-20,4.42-28.62,5.23-8.42,13.65-15.95,21.53-23a3.64,3.64,0,0,1,4.45-.34h0l.11.07h0c24.35,16,48.64,32,64.39,41.73l2.56,1.57,2.3,1.41h0c13,8,20.2,13.44,25.53,33,5.71,20.9,9.75,59.15,5.65,81-4.31,23.08-17.67,28.51-28.08,31.52-5.64,1.63-10.57,2.64-14.77,3.51-3.26.67-6,1.23-8.34,1.91a70,70,0,0,0-8,3c-2.68,1.12-5.72,2.4-9.71,3.74h0c-.85.28-1.58.52-2.48.8l-2.8.92c-7.17,2.4-15.39,5.82-22.22,14.15-9.17,11.15-15.26,30-13.63,36.28l.11.92-.12-.92c.35,1.34,1,1.9,3,1.91,3.28,0,8.06-1.91,12.14-4.28,6.56-3.81,9.53-7.76,12.79-12.14l-.24.36h0a3.67,3.67,0,0,1,5.87-.65c9.4,10.22,17.25,18.41,25.9,18.71h.46c8.86,0,19.57-7.76,31.87-17a3.64,3.64,0,0,1,4.37,0l.13.1h0l-.13-.11c7.48,5.58,14.55,10.83,21.47,14a29,29,0,0,0,12.06,3.07,19.48,19.48,0,0,0,7-1.28c6.49-2.46,13.29-8.67,20.85-15.66a3.66,3.66,0,0,1,4.79-.16c6.85,5.57,13.07,10.56,22.19,12.7a70.25,70.25,0,0,0,15.54,1.44c6.3,0,13-.4,20-.83h0l-3.32,2.73c1.63-6.25,3-11.52-1.75-19.72a113.44,113.44,0,0,0-7.38-10.5,159.3,159.3,0,0,1-11.25-16.29h0a66.11,66.11,0,0,1-5.21-11.12c-5.73-16.22-3.66-35.08,1.34-47.77,5.15-13.08,13.46-19.74,23.82-27.3l2.77-2,3-2.14c9.07-6.62,18.18-13.76,23.07-21.71,6.13-10,5.15-20,1.35-23.46-2-1.88-5.35-2.63-10.76-3.68-4.66-.91-10.45-2-16-5-11.45-6.27-20.93-20.22-27.46-39.62-6.59-19.59-10.41-45.42-4-77.11,4.51-22.17,14-47.18,23.36-71.62,3.93-10.3,7.83-20.54,11.34-30.49,11.86-33.65,19.3-64.28,22.73-93.29s2.8-56.14-6.54-83.66c-9.41-27.7-27.67-56-46.29-84.76a3.65,3.65,0,0,1,.63-4.71c28.86-25.86,56.17-50.55,60.38-84.58s-14.73-78.15-59.7-96.81c-22.14-9.18-50.78-12.33-80.68-12.4-31.15-.07-63.27,3.18-90.1,6.14-9.45,1-18.32,2.06-26.48,3-7.12.81-13.85,1.59-20.09,2.27-20.78,2.3-37.19,3.82-50.87,3.78-3.69,0-7.2-.13-10.55-.38-23.74-1.78-39.88-10.12-47.23-22.64-3.59-6.11-4.88-13-5.91-18.31-.86-4.47-1.49-7.49-2.61-9.39a4.43,4.43,0,0,0-.86-1.09,5.23,5.23,0,0,0-3.43-.95c-5,0-12.47,3.3-18.48,7.94-8,6.18-12.54,14.13-17.44,22.79a3.65,3.65,0,0,1-3.23,1.86,3.67,3.67,0,0,1-3.19-1.95l-.11-.22h0l.11.22c-8-15.09-17.8-33-11.19-47,6.41-13.63,28-22.31,47-30.17l-.66,6.4c-12-8.21-23.23-15.76-36.78-17.52a53.7,53.7,0,0,0-6.56-.42c-12.13,0-25.17,3.71-33.82,8.58-10,5.62-14.17,12.77-18.77,20.68a3.61,3.61,0,0,1-2.37,1.73,3.6,3.6,0,0,1-2.88-.57C1009.31-232.6,997-240.95,994.16-256c-2.79-14.58,3.31-35,14.9-46.18,8.15-7.85,18.81-11,28.38-11a40.26,40.26,0,0,1,12.42,1.93c12.1,4,18.53,13.59,24.24,21.94l-4.08-1.44c7.73-2.34,13.42-4.25,16.11-11.27,3.06-8,2.47-22.53,1.73-38.44a3.69,3.69,0,0,1,1.37-3,3.64,3.64,0,0,1,3.26-.66c19.15,5.31,39.71,10.9,53,25.25s19.13,37.05,15.93,55.64-15.57,33.09-27,46.55l-3-6c18.76-1.22,36.22-2.45,50.73-13.11,14.7-10.79,26.7-31.51,29.75-48.4,3-16.5-2.57-29.42-8.66-43.36a3.66,3.66,0,0,1,.68-4,3.67,3.67,0,0,1,3.92-.94l.16.07c12,4.35,25,9,35.52,19.71s18.78,27.41,17.32,43.88-12.54,31.69-22.72,45.93l-.8-5.07h0l0,0c4.26,3.09,7.72,5.54,13.71,5.55a23.91,23.91,0,0,0,2.46-.12c8.23-.81,20.62-5.75,28.86-14.27s12.55-20.79,17.17-34.1l0-.07h0a3.68,3.68,0,0,1,3.17-2.39,3.67,3.67,0,0,1,3.48,1.91c7.51,13.82,14.58,26.7,27.7,35.38,13.33,8.82,33.11,13.5,53.86,18.36l-3.94,5.5h0l.32.44c-4.74-5.58-9.74-11.45-14.14-22.27-4.3-10.57-8-25.9-11.65-40.81a3.66,3.66,0,0,1,1.67-4,3.66,3.66,0,0,1,4.33.43l0,0h0l0,0c20.26,18.31,40.41,36.53,61.36,53.15s42.42,31.39,64.63,37.47a91.51,91.51,0,0,0,23.6,3.25c13.95,0,26.68-3.39,35.87-9.84a44.79,44.79,0,0,0,18.09-42.93c-2.51-15.22-13.87-27.63-25.06-30.7a22.51,22.51,0,0,0-6.06-.82c-9.06,0-17.87,5.1-22.82,11.57-6,7.78-6.42,17.57-6.81,28.86a3.64,3.64,0,0,1-3.39,3.52c-1.1.09-2.35.18-3.71.17-4.78,0-10.32-1.2-19.68-6.32-12-6.57-30.85-19.91-52.33-36.94-6.58-5.22-13.48-10.85-20.6-16.65-7.84-6.38-15.93-13-24.52-19.79-9.14-7.24-18.76-14.67-28.87-22-28.22-20.61-60.36-41-109-54-31.48-8.4-69.91-13.72-107.17-13.81a318.17,318.17,0,0,0-58.91,4.93c-51.64,9.72-89.61,34.67-110.34,61.94s-24.32,56.79-18.19,80.71,22.16,42.52,38.92,61.8a3.66,3.66,0,0,1,.33,4.37l0,.05h0l0-.05c-8.65,13.55-16.55,26.07-17.82,38-1.24,11.7,3.92,23.46,11.58,33.23,7.42,9.45,15.46,15,17.69,15h0a1.17,1.17,0,0,0-.42.12,1.34,1.34,0,0,0-.61.52c.25-.48.41-1.81.58-5.16.22-4.26.5-10.41,3.15-16.45,4.92-11.26,18.12-22.1,31-22.07h.19c6.58.07,12.71,3.08,20.24,6.68a220.39,220.39,0,0,0,32.22,12.94c28,8.72,73.81,17,119.84,17.16,3,0,6,0,9-.08,33.37-.73,66.3-6,96-10.84,13.84-2.23,27-4.36,39.08-5.83a295.17,295.17,0,0,1,35.91-2.4c20.38,0,37,3.13,50.51,9.86,20.66,10.3,34,29.07,35.19,48.94s-9.69,40-29.62,55-49.24,24.93-100,28.13c-19,1.2-41.12,1.46-62.91,1.41-11.84,0-23.58-.15-34.73-.27-10.09-.1-19.61-.2-28.3-.22-11.26,0-21,.08-28.3.46-14.51.77-19.75,2.62-25.17,4.5-6.17,2.14-12.51,4.3-29.52,5.2l-3.21.15c-6,.24-13.22.33-21.44.31-42.12-.1-111.33-3.3-180.38-6.5a3.66,3.66,0,0,1-2.78-1.48C918.1,14.18,909.16,2.1,904.38-9.67S899-33,898.48-43.86V-44a3.64,3.64,0,0,1,1.88-3.19,3.68,3.68,0,0,1,3.7.08l26.33,16.21-5.45,4.09c-4.45-16.24-9-32.71-11.24-45l0,.18h0l0-.18a141.66,141.66,0,0,1-2.31-28.69v0a3.68,3.68,0,0,1,2.06-3.28,3.66,3.66,0,0,1,3.84.4L929.51-94l-5.91,2.75v-.17h0c.25-6.4.51-12.81,1.11-30.93h0l.14-4.25.17-5c.6-18.13,1.43-42.4,2.42-60.49v0c.14-2.54.31-5.31.44-7.59s.24-4.05.36-6.25c.73-13.43.8-22.37-1.84-31.21-3.53-11.8-12-23.76-20.92-36.38h0a3.65,3.65,0,0,1,.66-4.93c12.92-10.69,25.13-20.85,32.59-35.7s10.38-35,13.3-55.85v-.09l6.58,2.72h0l-.21.26C949-356.3,939.08-345,926.68-337c-9.4,6-20.5,10.32-30.39,10.3a27.66,27.66,0,0,1-9.09-1.46c-6.8-2.37-11.88-7.75-16.67-12.73a83.06,83.06,0,0,0-12-10.9c-10.93-7.7-27.27-12.36-44.53-17.21l4.57-2.75v0l-.05.18c-1.66,6.14-3.4,12.64-6.68,19.43s-8,13.71-12.5,20.38l0,.06h0a3.67,3.67,0,0,1-2.67,1.53,3.66,3.66,0,0,1-2.89-1c-9.91-9.76-19.55-19.25-33.77-27.94-10.55-6.46-22.82-12-31.16-12-3.07,0-5.13.73-6.46,1.94-3.54,3.27-4.44,11.46-5.19,20.89-.41,5.26-.81,11.59-2.88,15l.52-1.89h0l-.53,1.88a7.73,7.73,0,0,1-1.67,2,7.37,7.37,0,0,1-2.72,1.44,7.86,7.86,0,0,1-2.12.27c-5.17,0-11.78-5.12-17-8.93-2.25-1.66-4.5-3.31-6.71-4.79-9.94-6.64-19.59-10.05-33.7-10.85-2.24-.13-4.6-.19-7.07-.2-13.28,0-29.25,1.56-45.47,3.19l2.87-5.34c4,7.58,8.91,16.64,7.51,25.92-1.42,9.46-9.07,18.07-20.51,24.44A109.92,109.92,0,0,1,550-294.18a51.24,51.24,0,0,1-5.45.27,70.77,70.77,0,0,1-7.35-.45c-1.93-.19-3.55-.34-5.24-.34a23,23,0,0,0-3.8.28c-3.41.54-7.59,1.92-13,3.73C510-289,504-287,497.21-285.32c-13.75,3.34-30.7,5.19-47.31,7a3.62,3.62,0,0,1-2.86-.93,3.61,3.61,0,0,1-1.19-2.77v.06h0V-282c.23-14,.28-26.09-5.49-33.79-5-6.7-15.16-10.73-26.41-10.76-1.34,0-2.7.05-4.05.16-12.59,1.07-24.34,7.14-29.37,18.08-5.22,11.33-3.83,28.8-.36,42.92,3.39,13.79,8.54,23.47,13.89,33.48l-.59-.81h0l-.08-.09c15.81,15.38,31.85,31,41.37,42.35,4,4.78,6.85,8.81,9.34,12.33,2,2.88,3.78,5.34,5.75,7.7a50.87,50.87,0,0,0,4.81,5c7.65,6.94,20.38,14.29,33.66,21.95l0,0h0l-5.45,3.18h0v-.24a63.56,63.56,0,0,0-.13-14.12l0-.54h0l0,.55c-.75-5-2.54-10.62-4.48-16.63l0-.05v0a3.67,3.67,0,0,1,1.73-4.27,3.67,3.67,0,0,1,4.54.82l-.28-.3h0l.29.3c7.11,8.25,13.68,15.82,19.47,19.5,5.13,3.27,9.72,3.47,15.09,3.48h.78l-3.62,3.06c.81-4.83,1.62-9.7,2.83-14.9s2.77-10.45,4.31-15.69v0A3.65,3.65,0,0,1,526.6-182a3.63,3.63,0,0,1,3.6,2.1c5.59,12,11,23.63,18.72,35.21s17.7,23.17,27.89,35a3.65,3.65,0,0,1,.45,4.12,3.67,3.67,0,0,1-3.7,1.9c-28.45-3.7-57.28-7.44-87.78-17.59-16.43-5.47-33.3-12.78-48.31-19.28-12.32-5.34-23.31-10.1-32-13l-1.19-.38c-6.86-2.2-12-3.05-15.67-3.06-6.33,0-8.21,2.3-8.95,4.34-1.5,4.16.55,11,5.46,17.25,4.7,6,11.38,10.57,18.65,15.5a3.67,3.67,0,0,1,1.58,3.51,3.7,3.7,0,0,1-2.44,3c-4.48,1.55-8.17,2.76-11.38,10-2.29,5.24-4.24,13.4-6.29,22.08-1.09,4.61-2.23,9.42-3.42,13.66-3.42,12.2-7.45,20.51-11.37,28.58l-3.38-5.26m.18,7.32a3.67,3.67,0,0,1-3.17-1.68,3.67,3.67,0,0,1-.21-3.57c3.89-8,7.67-15.83,10.91-27.36,1.14-4.08,2.24-8.72,3.34-13.37,2-8.41,4.09-17.34,6.71-23.34,4.42-10.06,10.45-12.21,15.69-14l-.86,6.49c-7.07-4.8-14.76-10-20.3-17.05-5.34-6.81-9.42-16.41-6.58-24.25,2-5.63,7.22-9.19,15.85-9.17,4.73,0,10.61,1.08,17.89,3.41l1.26.41c9,3,20.35,7.91,32.56,13.21,15.07,6.52,31.64,13.7,47.7,19,29.75,9.89,57.9,13.56,86.43,17.27l-3.24,6c-10.12-11.7-20.43-23.62-28.44-35.69s-13.7-24.26-19.26-36.17l6.83-.54v.08c-1.55,5.27-3.06,10.39-4.2,15.29s-1.93,9.58-2.74,14.43a3.65,3.65,0,0,1-3.61,3.06H519c-5.58,0-12-.17-19-4.63s-14.27-13-21.09-20.9l.29.3h0l6-3.74v0l0-.06c1.89,5.85,3.91,12.09,4.76,17.79l0,.55h0l0-.54a70.26,70.26,0,0,1,.19,15.68v-.24h0a3.76,3.76,0,0,1-1.91,3.21,3.68,3.68,0,0,1-3.54,0h0l0,0c-13-7.5-26.55-15.28-34.91-22.87a56.15,56.15,0,0,1-5.5-5.73c-2.2-2.62-4.12-5.35-6.12-8.18-2.49-3.51-5.18-7.32-9-11.86-9.22-11-24.93-26.29-40.87-41.79l-.08-.09,0,0a3.54,3.54,0,0,1-.59-.81c-5.35-10-10.9-20.42-14.53-35.18-3.55-14.43-5.51-34,.81-47.74,6.5-14.11,21.18-21.1,35.4-22.29,1.57-.14,3.14-.21,4.69-.2,12.59,0,25.36,4.5,32.24,13.69,7.6,10.14,7.17,25.2,7,38.31v-.05h0l-4.06-3.64c16.76-1.84,33.19-3.64,46.38-6.85,6.47-1.57,12.18-3.48,17.31-5.2s10-3.37,14.18-4a30.16,30.16,0,0,1,5-.37c2.09,0,4.05.2,5.93.38a64.52,64.52,0,0,0,6.66.41,42.48,42.48,0,0,0,4.71-.23,102.81,102.81,0,0,0,34.95-11c10.48-5.83,15.88-12.87,16.83-19.13,1-6.44-2.43-13.2-6.76-21.42a3.65,3.65,0,0,1,0-3.44,3.66,3.66,0,0,1,2.86-1.91c16.11-1.62,32.49-3.26,46.22-3.23,2.58,0,5.07.07,7.47.21,15.36.88,26.28,4.68,37.34,12.08,2.38,1.59,4.76,3.34,7,5,6.39,4.71,10.51,7.5,12.63,7.51a.38.38,0,0,0,.15,0l-.07,0A.9.9,0,0,0,708-337l-.53,1.88L708-337c.94-1.57,1.36-5.55,1.86-11.83.64-8,1.35-20,7.53-25.7,3.14-2.9,7.26-3.89,11.42-3.88,10.57,0,24.38,6.58,35,13.07,15,9.18,25.18,19.21,35.09,29l-5.56.49h0l0,.07c4.6-6.8,9-13.29,12-19.46s4.53-12,6.21-18.17l-.05.19h0a3.76,3.76,0,0,1,1.77-2.41A3.67,3.67,0,0,1,816-376c16.84,4.75,34.59,9.7,46.77,18.28a89.92,89.92,0,0,1,13,11.81c5.1,5.28,9,9.2,13.82,10.9a20.2,20.2,0,0,0,6.69,1c8,0,17.7-3.54,26.41-9.14,11.38-7.31,20.59-17.8,30.19-28.78l-.21.26h0a3.73,3.73,0,0,1,4.52-1.17,3.64,3.64,0,0,1,2.06,3.88v0c-2.87,20.48-5.82,41.84-14,58.12-8.26,16.44-21.72,27.52-34.47,38.06l.65-4.93h0c8.75,12.33,18,25.32,22,38.52,3.05,10.2,2.87,20.31,2.14,33.7-.12,2.13-.23,4-.37,6.28h0c-.13,2.36-.29,5-.43,7.56v0c-1,18-1.82,42.19-2.42,60.32l-.16,5-.14,4.25h0c-.61,18.14-.86,24.57-1.12,31V-91a3.67,3.67,0,0,1-2.11,3.18,3.71,3.71,0,0,1-3.79-.43l-12.2-9.49,5.9-2.88h0a135,135,0,0,0,2.18,27.38l0-.18h0l0,.18c2.2,11.93,6.63,28.07,11.11,44.42a3.64,3.64,0,0,1-1.33,3.89,3.65,3.65,0,0,1-4.11.2L900.22-40.93,905.8-44h0v-.19c.53,10.93,1.06,21.19,5.37,31.8s12.65,22,21.34,33.8l-2.78-1.48c69.14,3.19,138.15,6.38,180.06,6.49,8.17,0,15.28-.08,21.14-.32l3.12-.14c16.23-.85,21.89-2.86,27.5-4.8,6-2.07,11.87-4.09,27.18-4.9,7.56-.39,17.43-.5,28.71-.47,8.72,0,18.28.12,28.35.23,11.16.11,22.87.23,34.68.26,21.75.06,43.65-.21,62.43-1.39C1393,11.7,1420.56,2,1439-11.82s27.75-31.84,26.7-48.66-12.46-33.52-31.15-42.84c-12.19-6.06-27.56-9-47.27-9.09a288.57,288.57,0,0,0-35,2.34c-11.9,1.45-24.92,3.55-38.79,5.79-29.61,4.79-63,10.19-97,10.93q-4.6.1-9.22.09c-46.76-.12-93.27-8.55-122-17.49a228.37,228.37,0,0,1-33.21-13.33c-8-3.83-12.54-5.92-17.16-6h-.13c-9.27,0-20.21,8.41-24.27,17.68-2,4.65-2.32,9.53-2.54,13.89-.13,2.5-.22,5.91-1.41,8.18a5.92,5.92,0,0,1-2.75,2.71,6.36,6.36,0,0,1-2.57.58h-.15c-6.29,0-16.39-8.78-23.44-17.76-8.29-10.57-14.62-24.2-13.1-38.51,1.49-14,10.59-28.14,18.93-41.21l0,0h0l.29,4.42c-16.56-19-33.85-38.84-40.49-64.79s-2.58-58,19.46-87,61.63-54.7,114.81-64.7a325.65,325.65,0,0,1,60.28-5.06c37.88.09,76.94,5.5,109,14.06,49.88,13.32,82.85,34.25,111.45,55.14,10.22,7.46,19.91,14.93,29.11,22.23,8.63,6.85,16.75,13.46,24.59,19.85h0c7.13,5.82,14,11.4,20.53,16.58,21.41,17,39.86,30,51.29,36.26,8.65,4.74,13,5.42,16.18,5.43,1,0,2-.07,3.17-.15l-3.39,3.52c.37-10.81.68-23.11,8.31-33.06,6.15-8,17-14.47,28.65-14.44a30.6,30.6,0,0,1,8,1.08c14.28,3.93,27.43,18.91,30.34,36.58A52.06,52.06,0,0,1,1554-188.46c-10.72,7.54-25,11.21-40.09,11.18a98.19,98.19,0,0,1-25.51-3.52c-23.76-6.5-46.15-22-67.24-38.79s-41.5-35.16-61.73-53.45l0,0h0l6-3.61c3.69,15.12,7.29,29.83,11.33,39.79,3.94,9.69,8.31,14.84,12.93,20.28l.32.43h0a3.48,3.48,0,0,1,0,3.85,3.65,3.65,0,0,1-4,1.65c-20.3-4.75-41.57-9.67-56.23-19.37-14.86-9.84-22.7-24.4-30.09-38l6.65-.48h0l0-.06c-4.49,12.93-9.28,26.9-18.83,36.78s-23.6,15.51-33.41,16.47c-1.1.11-2.17.16-3.19.16-8.52,0-13.66-3.8-18-7h0a3.66,3.66,0,0,1-.8-5.08c10.54-14.75,20.15-28.37,21.38-42.31,1.22-13.79-5.85-28.56-15.24-38.11-9.23-9.36-20.57-13.55-32.79-18h0l-.17-.06,4.6-4.9c6,13.8,12.58,28.64,9.15,47.59-3.36,18.57-16.29,41-32.61,53-16.52,12.13-36.21,13.32-54.59,14.51a3.65,3.65,0,0,1-3.51-2,3.67,3.67,0,0,1,.48-4c11.73-13.77,22.57-26.64,25.39-43,2.85-16.55-2.43-36.88-14.08-49.42s-29.93-17.72-49.62-23.18l4.63-3.69c.7,15.1,1.55,31.6-2.2,41.39-4.13,10.78-13.5,13.44-20.83,15.66a3.67,3.67,0,0,1-4.08-1.43c-5.91-8.65-11.09-16-20.48-19.12a32.9,32.9,0,0,0-10.15-1.56,33.38,33.38,0,0,0-23.29,8.91c-9.8,9.44-15.12,27.36-12.79,39.53,2.23,11.67,11.62,18.43,22.72,26.17l-5.26,1.16c4.64-8,9.66-16.7,21.5-23.37,9.73-5.49,24-9.56,37.43-9.52a57.89,57.89,0,0,1,7.48.48c15.57,2,28.18,10.7,40,18.73a3.66,3.66,0,0,1,1.57,3.4,3.65,3.65,0,0,1-2.23,3c-20.43,8.47-38.24,16.12-43.14,26.53-4.69,10,2.24,23.84,11,40.51l.11.22h0l-6.53-.31c4.82-8.53,10-17.77,19.34-25,6.56-5.07,15.66-9.48,23-9.46a12.3,12.3,0,0,1,8.18,2.71,11.44,11.44,0,0,1,2.4,2.93c1.91,3.24,2.72,7.73,3.49,11.72,1.06,5.52,2.17,11.13,5,16,5.62,9.58,18.89,17.36,41.47,19.05,3.15.24,6.47.36,10,.36,13.22,0,29.26-1.43,50-3.73,6.21-.69,13-1.46,20.06-2.27,8.18-.94,17-1.95,26.52-3,26.83-3,59.31-6.26,90.92-6.19,30.21.08,60,3.23,83.46,13,48.22,20,68.77,67.31,64.16,104.47s-34.46,63.78-62.76,89.13l.63-4.71c18.49,28.57,37.32,57.65,47.08,86.38,9.8,28.89,10.38,57.22,6.88,86.87s-11.1,60.82-23.1,94.86c-3.54,10.06-7.48,20.38-11.4,30.66-9.37,24.61-18.67,49-23,70.48-6.16,30.29-2.49,54.82,3.73,73.32,6.29,18.69,15,30.55,24,35.53,4.38,2.39,9.06,3.33,13.85,4.25s10.43,1.91,14.32,5.49c7.68,7.06,6.78,21.54-.06,32.67h0c-5.77,9.36-16.09,17.28-25,23.78h0l-3,2.15-2.76,2c-10.2,7.44-17,13.06-21.32,24.07-4.48,11.39-6.28,28.41-1.25,42.66a58.37,58.37,0,0,0,4.65,9.88,154.9,154.9,0,0,0,10.75,15.54,121.09,121.09,0,0,1,7.88,11.24c6.25,10.81,4.24,18.52,2.49,25.24a3.67,3.67,0,0,1-3.32,2.73h0c-6.86.42-13.86.86-20.44.84a76.73,76.73,0,0,1-17.19-1.64c-11-2.57-18.37-8.64-25.13-14.14l4.79-.15c-7.17,6.64-15.11,14.05-23.23,17.13a26.5,26.5,0,0,1-9.61,1.75,36.19,36.19,0,0,1-15.12-3.74c-7.74-3.58-15.45-9.35-22.76-14.8l-.13-.1h0l4.51.09c-11.39,8.52-24.37,18.45-36.27,18.42l-.7,0c-12.39-.43-22.48-11.77-31-21.07l5.87-.65h0l-.24.37c-3.39,4.53-7.08,9.5-15,14.09-4.3,2.5-10.51,5.28-15.82,5.27-4.29,0-8.62-2-10-7.4l-.11-.92h0l.11.92c-2.52-9.76,5.4-31,15.06-42.76,8.15-9.92,18-13.89,25.55-16.44l2.89-.94,2.4-.78h0c3.72-1.25,6.54-2.43,9.2-3.55a76,76,0,0,1,8.8-3.27c2.69-.78,5.72-1.4,8.9-2,4.2-.87,8.87-1.83,14.21-3.37,9-2.6,19.32-6.55,22.92-25.83,3.82-20.46,0-57.53-5.52-77.77-4.69-17.15-10.25-21.23-22.31-28.67l-2.28-1.39-2.58-1.59c-15.86-9.77-40.28-25.85-64.57-41.85h0l-.11-.06,4.45-.34c-8.08,7.26-15.62,14.08-20.19,21.43-4.46,7.18-6,14.72-3.62,22.68,2.5,8.42,9,16.63,17.28,18.33a20.49,20.49,0,0,0,4.26.4,69.89,69.89,0,0,0,12.95-1.69,63,63,0,0,1,11.32-1.51c.62,0,1.25,0,1.87.09a15.33,15.33,0,0,1,3.22.66c8.86,2.89,10,12.41,7.12,21.11-3.27,10-12.33,22-23.91,34.75-1.71,1.87-3.37,3.66-5.15,5.56-10.67,11.44-21,22.73-23.88,33.88a34.72,34.72,0,0,0-.42,13.44,126,126,0,0,0,3,14,141,141,0,0,1,3.36,15.58c2.22,16.08-1,33.18-8,44.06-6.09,9.47-15,14.2-24.82,14.17a31.41,31.41,0,0,1-5.18-.44c-11.07-1.87-22.37-9.62-32.73-16.68l-.17-.12,5.37-1.49c-3.06,6.64-6.71,14.84-17.25,18.34a46.12,46.12,0,0,1-14.27,2c-7.11,0-14.73-1.26-20.22-3.74-10-4.52-12.27-12.82-14.2-19.43l6.62.9-.27.38c-5.25,6.47-11.07,13.71-18.16,17.79a27.11,27.11,0,0,1-13.65,3.7,29.23,29.23,0,0,1-11.11-2.31c-8.43-3.47-17-11-25-18l4.68.12h0l-.23.17c-11.42,7.62-23.54,15.74-32.47,18.68a26.65,26.65,0,0,1-8.45,1.45c-5.24,0-9.28-1.87-12.62-3.37a3.67,3.67,0,0,1-2-4.43c4.15-13.38,8.49-27.44,15.81-38.32,7.56-11.24,18.19-18.93,37-22,8.8-1.44,19.45-1.87,29.54-2.28,11.19-.46,21.61-.89,29-2.48,13.27-2.86,16.46-9.34,20.19-16.78l-.39,1.55c1-40.1,2-79.28-6.32-106.77-4.89-16.22-13-28.47-22.47-40.22-3.15-3.92-6.44-7.78-9.78-11.72s-6.9-8.11-10.36-12.42c-16.88-21.05-32.64-46.65-39.49-66.51-6.92-20.06-4.71-34.17-2.55-47.6h0l0-.29,3.83,4.23c-26,1.58-51.63,3.16-72.23,7.33-20.45,4.14-36,10.84-67.07,24.44L927.54,380c-30.87,13.5-75,32.78-102.62,43.11-28.86,10.78-40.11,11.92-51.33,13l2.63-1.52c-15.87,22.39-31.29,44.18-37.94,61.69s-4.2,29.49,2,35.62c5.55,5.51,14.92,7.36,24.63,8.75l2.42.33,2.3.33c10.6,1.5,18.34,3.17,26,4.81a3.65,3.65,0,0,1,2.48,5.25c-8.46,16.44-17.3,33.76-32.76,45.9s-37,18.76-57.76,25.25l2.52-2.88c-1.06,6.15-2.05,12-.54,21.44l0,.58h0l0-.58c.33,2.09.76,4.27,1.25,6.75,1.76,8.83,4.12,20.35,1.31,30.74-3.56,13.17-15.26,23.86-25.74,33.59a3.74,3.74,0,0,1-2.27,1h0c-3,.15-6.16.32-9.36.31a60.07,60.07,0,0,1-15.62-1.9c-9-2.39-18.62-7.54-27.76-12.4h0L635,699h0l.28-.19c-7.61,5.77-16,12.23-26.49,14.31a44.09,44.09,0,0,1-8.66.79,63.64,63.64,0,0,1-21.83-4.13c-8.27-3.2-12.66-7.39-16.66-11.23l-.11-.11,4.5.45c-8.8,5.62-18.33,11.77-27.77,14a38.07,38.07,0,0,1-8.62,1,39,39,0,0,1-17.26-4.1c-7-3.52-11.51-8.68-15.58-13.26l.32.32h0l4.44.3c-9,6-18.95,12.67-26.5,14.4a19.33,19.33,0,0,1-4.3.5c-6.11,0-10.41-3.28-13.68-5.7h0l-.09-.07a3.66,3.66,0,0,1-1.33-4c6.81-22,14-45.56,24.51-57,9.19-10,20.68-10.74,34-10.71h1c1.36,0,2.65,0,4.07,0l4.45,0H525c18,0,40.49-1,56.77-5.41s26.1-12.32,32-25.82c6-13.8,8-33.84,2.71-58.3s-17.91-53-30.79-82.07h0l-.28-.63,1.9,1.88c-30.45-13.09-61.38-26.38-93-53.43s-63.59-67.54-79.76-102.54c-16.33-35.35-16.35-64.93-8.72-98.51,7.58-33.36,22.79-71.09,42.75-99.26S493.23,63.8,517.4,45.71l.11-.07h0l.25-.15C529.32,38.7,540.76,32,550,26s16.06-11.13,21.34-16.42c5.47-5.48,8.25-10.12,7.56-14.93-.79-5.56-5.45-10.59-9.33-10.59h-.42c-4.88.39-11.59,7.39-16.62,13.9a63.18,63.18,0,0,0-7.83,12.62,3.65,3.65,0,0,1-5.45,1.34c-5.79-4.26-12-8.78-17.88-16.43s-11.32-18-16.64-28l-.09-.19h0v0l6.92-.79c-1.88,9.21-4,20.4-8.36,25.27A9.36,9.36,0,0,1,496-4.94c-4.3,0-8.3-2.85-11.47-6.07-5.16-5.26-9.93-13.47-14.38-21.09l.09.14h0l4.62,1.34c-7.68,3.57-15.61,7.25-25.94,10.16-10.13,2.85-22.53,4.93-34.69,7l-.39.07a3.65,3.65,0,0,1-3.74-1.73,3.65,3.65,0,0,1,.24-4.12c4.86-6.28,9.6-12.41,13.08-17.69a131.86,131.86,0,0,0,8-14.25l4.22,5.17c-9.85,2.67-19.94,5.42-31.47,6.94S379.86-37.31,367.29-37Zm0,0" transform="translate(-113.72 478.53)"/><path d="M416.72,297h0a3.67,3.67,0,0,1-6.38,2.45c-16.3-18-32.53-35.92-53.45-56.22s-46.55-43-72.26-65.84l0,0,0,0a3.65,3.65,0,0,1,.5-5.8h0l.22-.14h0c13.8-8.77,25.75-16.63,29.21-28.48,3.53-12.09-1.61-29.11-10.67-37.75C295,96.73,282.28,96,267.61,95.41a3.65,3.65,0,0,1-3.5-3.77v-.08C269-59,273.79-209.77,282.88-304.32c9.11-94.8,22.52-133.32,35.92-171.76l5.11,4.48c-31.23,15.76-61.68,31.19-86.66,68.32-25.1,37.29-44.91,96.83-54.42,183.18s-8.72,199.17-7.91,312.31a3.67,3.67,0,0,1-3.76,3.68c-2.39-.06-4.73-.12-7-.13-8.6,0-16.52.75-23.87,4.78-9.57,5.24-18.2,15.95-19.11,27.72s5.87,25.62,16.79,34.54,25.74,12.88,41.64,17A3.66,3.66,0,0,1,181,186.2c-4.22,3.52-6.28,5.57-6.37,7.7-.12,2.59,2.25,6.45,6,12a3.67,3.67,0,0,1-2,5.55c-8,2.37-13.37,4.22-15.21,7.46-1.69,3-.75,8.86,2.69,13.75,3.2,4.55,8.08,7.35,13.87,10.61a3.65,3.65,0,0,1,.85,5.72l.21-.24h0l-.21.23c-5.47,5.71-8.59,9.42-8.26,12.49.36,3.38,4.75,7.51,11.34,13.23a3.64,3.64,0,0,1,.93,4.28c-3.19,7-5.19,11.92-3.86,15.68,1.41,4,6.79,7.72,14.06,12.47l0,0h0a3.68,3.68,0,0,1,.43,5.88l-3.9,3.34,1.28-2.77-.05,16a3.66,3.66,0,0,1-5.25,3.29c-8.57-4.16-16-7.7-22.18-7.78h-.16a12.53,12.53,0,0,0-12.2,8.33c-2.4,6.12-1.46,13.89,3.41,17.27,3.79,2.63,10.64,3.5,19.69,3.52,3.61,0,7.4-.11,11.26-.23h0a3.65,3.65,0,0,1,3.52,2.35c1.41,3.66,3.31,8.62-1.13,15.22-3.75,5.58-12.38,12.59-20.21,19l0,0h0l.58-5.14c6.7,8.43,14,17.53,17.23,28.35a53.11,53.11,0,0,1-.95,32.17c-3.42,9.22-9.42,14.93-14.78,20.1l.19-.2h0a3.67,3.67,0,0,1-5.65-.24c-4.7-6.23-8.57-11.18-13.44-13.05a13.39,13.39,0,0,0-4.75-.87,13.07,13.07,0,0,0-9.57,3.94c-3.62,3.86-5.24,11-2.89,17.77s8.74,13.12,16.32,16.81,16,4.58,25.34,5.55a3.67,3.67,0,0,1,2.74,5.56c-3.25,5.26-6.78,11-12.58,16s-13.46,8.92-20.69,12.69l-1.19-6.88,42.73,6a3.64,3.64,0,0,1,3.06,2.8c2,8.47,3.77,16.14,7.25,21.81s8.11,8.64,11.89,8.65h.21c3.85-.11,8.47-3.41,11.51-8.89s4.06-12.21,5.22-19.92l.11-.46h0a3.64,3.64,0,0,1,3-2.6L274.12,524l-1.5,6.66c-8.58-5.78-17.55-11.8-23.16-17a43.5,43.5,0,0,1-10.24-14l.22.36a3.67,3.67,0,0,1,2.52-5.65c10.8-1.56,20.91-3.05,29.55-7.09,8.83-4.14,15.26-10.49,16.43-16.73s-2.69-13.78-8.1-17.6a15.88,15.88,0,0,0-9-2.91,11.53,11.53,0,0,0-5.74,1.36c-3.15,1.83-4.39,5.58-6,11.4l.13-1h0a3.66,3.66,0,0,1-5.77,3c-6.7-4.73-14.21-10-18.75-17.12-4.7-7.4-6.09-16.53-2.73-27,3.25-10.12,11-21.63,18.33-32.51l.11-.16h0l.33,4.78h0l.12.12c-6.81-6.24-14.27-13-18.24-19.75-4.14-7-4.43-13.84-4.72-19.74a3.65,3.65,0,0,1,5.06-3.55h0l.12.05h0c8.75,3.67,16.55,6.86,23.26,6.88a18.3,18.3,0,0,0,2.92-.22c7.07-1.16,12.71-7,13.65-12.24.84-4.72-2.16-10.13-9.1-12.53a37.27,37.27,0,0,0-11.83-1.56c-5.73,0-12.11.62-18.72,1.29a3.67,3.67,0,0,1-4-2.93l-1.71-8.6a3.66,3.66,0,0,1,3.56-4.37,47.13,47.13,0,0,0,10.28-.79,33.68,33.68,0,0,0,8.33-3.7l-.16.1h0a3.66,3.66,0,0,1,4,.06c2.83,1.89,4.71,3,6.76,3.22l.54,0a16,16,0,0,0,6.86-2,21,21,0,0,0,5-3.9,3.67,3.67,0,0,1,5.11,0l15.39,15.2a3.75,3.75,0,0,1,.94,1.58h0l.05.18v0A85.17,85.17,0,0,1,298.32,352c0,4.5-.19,9.7-.42,15-.24,5.77-.49,11.57-.45,17,0,3.32.16,6.41.45,9.19,1.23,11.45,5.32,17.59,8.56,20.5,3,2.71,5.54,2.87,9.07,3.05h-.17l-3.67,3.83v-.16h0c-.22-4.43-.63-10.61,4.32-15.77a21.19,21.19,0,0,1,15.24-6.18,24.74,24.74,0,0,1,9.38,1.94c10,4.12,20.95,15.54,31.1,27.13,1.2,1.37,2.16,2.47,3.34,3.84l3.36,3.86c8.16,9.32,16.37,17.93,26.51,23.23a50,50,0,0,0,23.14,5.72,55.22,55.22,0,0,0,22.78-5c17.23-7.69,35.2-24.75,53.83-42.52a3.66,3.66,0,0,1,5.05,5.3c-18.3,17.45-37.26,35.59-55.89,43.9a62.59,62.59,0,0,1-25.79,5.66,57.39,57.39,0,0,1-26.51-6.56c-11.48-6-20.46-15.56-28.62-24.89l-3.39-3.88-3.31-3.82c-10.42-11.9-20.25-21.84-28.38-25.19a17.42,17.42,0,0,0-6.62-1.38,13.9,13.9,0,0,0-9.94,3.92c-2.5,2.61-2.53,5.6-2.3,10.35h0v.16a3.67,3.67,0,0,1-3.67,3.83h-.18c-3.77-.19-8.55-.4-13.59-4.91-4.81-4.32-9.55-12.26-10.94-25.17-.33-3.1-.47-6.46-.5-9.91,0-5.67.22-11.68.46-17.4.23-5.33.44-10.32.41-14.6a77.73,77.73,0,0,0-3.83-24.33h0l-.05-.18.95,1.59-15.4-15.2,5.11,0a28.39,28.39,0,0,1-6.66,5.07,23.17,23.17,0,0,1-10.32,2.86c-.37,0-.75,0-1.12-.05-4.26-.35-7.72-2.75-10.22-4.42l4,.06h0l-.16.09a40.5,40.5,0,0,1-10.14,4.4,53.55,53.55,0,0,1-11.94,1l3.55-4.37,1.71,8.61-4-2.93c6.53-.66,13.29-1.34,19.47-1.33a44.64,44.64,0,0,1,14.2,2c9.51,3.29,15.54,11.66,13.91,20.75-1.53,8.57-9.84,16.56-19.67,18.16a25.9,25.9,0,0,1-4.12.32c-8.47,0-17.75-4-26.07-7.45h0l-.12-.05,5.07-3.56c.29,6,.59,11.09,3.71,16.38,3.29,5.58,9.77,11.56,16.88,18.07l.12.12h0a3.6,3.6,0,0,1,.33,4.78h0l.11-.16c-7.52,11.2-14.57,21.75-17.43,30.66-2.75,8.55-1.52,15.4,1.93,20.83,3.62,5.69,9.8,10.13,16.8,15.07l-5.77,3,.14-1c1.41-5,3.21-12.15,9.38-15.75a18.76,18.76,0,0,1,9.45-2.36A23.24,23.24,0,0,1,284.06,447c7.16,5.05,12.88,15.23,11.07,24.93s-10.91,17.51-20.52,22c-9.8,4.58-21,6.18-31.6,7.7l2.52-5.64h0l.21.37a36.27,36.27,0,0,0,8.66,11.92c5.11,4.69,13.52,10.37,22.29,16.27a3.66,3.66,0,0,1-1.5,6.66l-43.84,6.58,3-2.61h0l.1-.46c-1.12,7.38-2.33,15.63-6.06,22.37s-10.21,12.45-17.71,12.65h-.44c-7.37,0-14-5.44-18.1-12.15-4.23-6.89-6.25-15.84-8.14-24l3.06,2.8-42.73-6a3.67,3.67,0,0,1-1.19-6.88c7.46-3.88,14.39-7.51,19.31-11.74s7.82-9,11.12-14.32l2.73,5.56c-9-.94-18.9-1.92-27.78-6.25s-16.89-12-20-21-1.25-19.09,4.46-25.18a20.34,20.34,0,0,1,14.92-6.26,20.65,20.65,0,0,1,7.37,1.36c7.22,2.77,12.34,9.76,16.65,15.47l-5.65-.23h0l.19-.2c5.43-5.23,10.23-9.91,13-17.38a45.76,45.76,0,0,0,.82-27.52c-2.77-9.22-9.07-17.22-16-25.89a3.65,3.65,0,0,1,.57-5.13h0l0,0c8.29-6.8,15.79-13,18.78-17.45,2.32-3.45,1.59-5.32.37-8.51l3.52,2.35h0c-3.83.12-7.75.24-11.51.23-8.79,0-17.93-.71-23.84-4.83-8.85-6.15-9.06-18.28-6.06-25.95a19.84,19.84,0,0,1,19-13h.23c8.14.1,17.26,4.61,25.29,8.5l-5.26,3.28.05-16a3.66,3.66,0,0,1,1.27-2.77l3.9-3.34.43,5.88h0l-.06,0c-6.31-4.11-14.53-9.25-17-16.16-2.52-7.15,1.39-15.19,4.11-21.14l.93,4.28c-5.44-4.72-13.08-11-13.83-18-.78-7.27,5.92-13.8,10.25-18.33l-.2.24h0l1.06,5.48c-5.53-3.11-12-6.65-16.28-12.78C156,231.09,153.22,222,157,215.31c3.63-6.43,12.84-8.91,19.49-10.89l-2,5.55c-3.05-4.56-7.45-10.81-7.2-16.4.27-6,5.71-10.26,9-13l1.41,6.35c-15.51-4.08-32.06-8.36-44.41-18.46s-20.59-26-19.45-40.77,11.69-27.45,22.89-33.58h0c9-4.94,18.44-5.7,27.4-5.68,2.42,0,4.85.07,7.22.13l-3.75,3.69c-.81-113-1.62-226.28,8-313.17s29.58-147.78,55.62-186.46c26.14-38.85,58.18-55,89.43-70.77a3.67,3.67,0,0,1,4.06.51,3.67,3.67,0,0,1,1,4c-13.26,38-26.5,76-35.55,170.05-9.07,94.28-13.9,244.74-18.73,395.42v0l-3.51-3.74c14,.59,29.82,1.1,41,11.72,10.88,10.38,17,30.19,12.63,45.11s-19.23,24.29-32.31,32.6h0l-.21.14.5-5.8,0,0,0,0c25.66,22.75,51.45,45.61,72.5,66.06s37.48,38.56,53.78,56.55l-6.37,2.45a3.66,3.66,0,0,1,7.32,0Zm0,0" transform="translate(-113.72 478.53)"/><path d="M1207.6-331.73Zm0,0ZM906.65-277.86Zm-384,98.22h0Zm0,0h0ZM373-43.68h0Zm764.79-351.43c-5,0-10,.07-14.91.25a300.38,300.38,0,0,0-44.14,4.69h0c-51.82,9.74-90,34.79-110.84,62.23s-24.51,57.25-18.33,81.4h0c6.2,24.2,22.36,42.87,39.1,62.13A2.86,2.86,0,0,1,989-181c-8.62,13.5-16.65,26.2-18,38.4-1.27,12,4,24,11.75,33.8h0c6.78,8.63,14.11,14.07,17.28,15.08a.93.93,0,0,0,.24,0,.73.73,0,0,0,.47-.15.79.79,0,0,0,.33-.64h0c.14-.86.24-2.2.35-4.34v-.33c.22-4.24.56-10.1,3.07-15.84,4.73-10.81,17.21-21.12,29.39-21.57h0l.85,0h.19c6.2.06,12,2.83,19.33,6.33l.56.27a222.39,222.39,0,0,0,32.33,13h0c28.12,8.75,74,17.08,120.08,17.19q4.53,0,9.06-.08c1.86,0,3.74-.1,5.6-.17,31.51-1.15,62.48-6.15,90.49-10.68h.09c13.81-2.23,26.92-4.35,39-5.81h0c9.66-1.18,18.65-1.93,27-2.24q4.5-.17,8.79-.16c20.32.05,36.77,3.12,50.15,9.78C1457.88-99,1471-80.42,1472.18-60.88s-9.52,39.45-29.3,54.27-48.88,24.78-99.57,28c-5,.32-10.23.57-15.6.77-15,.55-31.2.68-47.27.64-11.81,0-23.56-.15-34.67-.27h0c-10.09-.1-19.65-.2-28.32-.22-9.36,0-17.69,0-24.5.29-1.32.05-2.63.11-3.82.18h0c-14.45.76-19.79,2.6-25.22,4.49l-.12,0h0c-6.11,2.12-12.38,4.27-29.3,5.16l-3.2.15h-.54l-.46,0h-.06c-5.75.21-12.59.29-20.34.27-42.11-.1-111.16-3.3-180.07-6.48h-.28a2.89,2.89,0,0,1-2.17-1.16l-.19-.25-.18-.26h0C918.46,13.32,909.79,1.53,905.13-10c-4.75-11.7-5.31-23-5.83-33.71v-.22a2.85,2.85,0,0,1,1.4-2.6,2.84,2.84,0,0,1,1.46-.4,2.85,2.85,0,0,1,1.49.42l18.44,11.35a.76.76,0,0,0,.41.13.91.91,0,0,0,.4-.1.83.83,0,0,0,.41-.7l0-.22c-3.57-13.14-6.91-25.87-8.76-35.87h0l0-.14a141.5,141.5,0,0,1-2.29-28.57h0a2.88,2.88,0,0,1,1.6-2.58h0a2.87,2.87,0,0,1,1.27-.29,2.85,2.85,0,0,1,1.75.6l6.58,5.11a.79.79,0,0,0,.49.17.72.72,0,0,0,.35-.08.78.78,0,0,0,.45-.72c.22-5.54.43-11.59.84-24l.14-4.34h0l.17-5.11v0c.61-18.07,1.44-42.26,2.42-60.21.16-2.83.29-5,.44-7.6.12-2.15.25-4.3.36-6.26v0h0v0h0c.73-13.29.81-22.31-1.81-31.22h0c0-.07,0-.15-.07-.23-3.57-12-12.09-24-21-36.62a2.85,2.85,0,0,1,.5-3.85c12.91-10.67,25.26-20.94,32.81-36,6.13-12.18,9.16-27.6,11.63-44a.78.78,0,0,0-.17-.63.79.79,0,0,0-.59-.29h-.08a.79.79,0,0,0-.6.26h0c-7.06,7.73-14.59,15.11-23.4,20.77s-19.29,9.81-28.62,10.16l-1.34,0a26.88,26.88,0,0,1-8.76-1.39h0l-.06,0c-6.45-2.26-11.33-7.3-16.05-12.21,0,0-.29-.31-.31-.32a84.31,84.31,0,0,0-12.1-11h0c-10.3-7.26-25.3-11.82-41.18-16.31l-.18,0h-.09a.79.79,0,0,0-.77.6v0a91.6,91.6,0,0,1-5.66,15.71.77.77,0,0,0-.07.26h0c-3.19,6.54-7.78,13.32-12.22,19.87l-.1.15,0,.07a2.88,2.88,0,0,1-2.07,1.17h-.25a2.82,2.82,0,0,1-2-.82h0c-9.89-9.74-19.57-19.26-33.83-28h0l-.09-.06c-10.6-6.49-23-12.09-31.57-12.12l-.73,0a9.43,9.43,0,0,0-6.28,2.15c-3.84,3.52-4.71,12.15-5.44,21.41,0,.29-.08.95-.08.95h0l-.06.71c-.39,4.94-.9,10.12-2.64,13a.67.67,0,0,0-.1.23h0a7.23,7.23,0,0,1-1.36,1.56,6.43,6.43,0,0,1-2.42,1.28h0a7.09,7.09,0,0,1-1.56.23h-.28c-4.59,0-10.5-4.33-15.58-8.09l-.93-.68c-2.23-1.64-4.45-3.28-6.66-4.76h0a.18.18,0,0,0-.07-.05c-10.06-6.73-19.84-10.18-34.09-11-2.27-.13-4.64-.19-7.12-.2s-5.05,0-7.72.14c-10.05.37-21.17,1.4-32.51,2.53a.79.79,0,0,0-.72.83.78.78,0,0,0,.32.61h-.05c3.18,6.38,5.86,13.32,4.8,20.34h0c-1.37,9.11-8.77,17.55-20.1,23.86h0A109.57,109.57,0,0,1,549.87-295c-1.18.12-2.3.19-3.36.23l-2,0a71.36,71.36,0,0,1-7.14-.43h-.17c-1.91-.18-3.57-.34-5.28-.35l-1,0h0a22.45,22.45,0,0,0-2.84.27c-3.49.55-7.74,2-13.12,3.76h0l0,0h0c-5.1,1.71-11,3.69-17.76,5.33-13.65,3.31-30.47,5.15-47,7h0l-.18,0h-.32a2.82,2.82,0,0,1-1.91-.74,2.9,2.9,0,0,1-.94-2.17c.24-13.92.33-26.32-5.64-34.29h0c-5.24-7-15.68-11.06-27-11.09-.62,0-1.25,0-1.88,0h0c-.75,0-1.5.07-2.26.14h0c-12.76,1.08-24.82,7.25-30,18.53-5.34,11.6-3.89,29.29-.4,43.46,3.37,13.7,8.46,23.38,13.73,33.26a.86.86,0,0,0,.43.37h-.05c15.62,15.18,31.29,30.46,40.65,41.63,4,4.74,6.8,8.75,9.28,12.26h0l0,0c2,2.86,3.8,5.36,5.79,7.74a.7.7,0,0,0,.19.16h-.05a51.6,51.6,0,0,0,4.74,4.93c6.73,6.1,17.3,12.48,28.64,19.07a.82.82,0,0,0,.4.1.79.79,0,0,0,.4-.1.78.78,0,0,0,.4-.68,47.18,47.18,0,0,0-.43-8.22h0v-.12c-.76-5.07-2.6-10.8-4.53-16.79a2.86,2.86,0,0,1,1.32-3.37h0a2.86,2.86,0,0,1,1.41-.37,2.84,2.84,0,0,1,2.15,1h0c7.09,8.21,13.75,15.89,19.66,19.65h0c4.56,2.89,8.69,3.46,13.18,3.58h0a.83.83,0,0,0,.56-.23.82.82,0,0,0,.24-.57h0c.65-3.81,1.34-7.61,2.28-11.63,1.2-5.13,2.77-10.44,4.31-15.67h0v0h0v0h0l0-.16h0a2.87,2.87,0,0,1,2.45-1.8h.23a2.88,2.88,0,0,1,2.58,1.66c5.57,11.94,11,23.68,18.78,35.32S566-121,576.2-109.24a2.87,2.87,0,0,1,.35,3.22h0a2.86,2.86,0,0,1-2.52,1.5l-.36,0h0l-.12,0c-28.43-3.7-57.13-7.43-87.51-17.54-16.36-5.44-33.19-12.73-48.18-19.23h0l-.06,0c-12.31-5.34-23.32-10.11-32-13h0c-.36-.13-.81-.28-1.16-.38-6.92-2.22-12.1-3.09-15.92-3.1l-.94,0c-5.84.21-7.91,2.5-8.76,4.85-1.65,4.56.62,11.69,5.58,18h0c4.79,6.12,11.58,10.75,18.83,15.66h0a2.83,2.83,0,0,1,1.23,2.73h0a2.83,2.83,0,0,1-1.9,2.32l-.1,0h0l-.08,0-.07,0c-4.45,1.53-8.29,3-11.55,10.38h0c-2.33,5.31-4.29,13.56-6.34,22.21v.07h0c-1.09,4.62-2.2,9.31-3.39,13.54l0,.22h0a140.81,140.81,0,0,1-8.67,22.84h0l0,0h-.06a1.06,1.06,0,0,0,0,.31.74.74,0,0,0,.12.43.82.82,0,0,0,.65.37h.05c2.62-.07,5.23-.14,7.83-.24,7.84-.29,15.4-.74,22.38-1.67,11-1.46,20.73-4.09,30.62-6.77h0a2.43,2.43,0,0,1,.75-.11,2.87,2.87,0,0,1,2.21,1.05,2.86,2.86,0,0,1,.34,3.09h0l0,0h0a136.55,136.55,0,0,1-8.34,14.86h0c-2.18,3.32-4.86,7-7.68,10.71a.8.8,0,0,0-.08.84.8.8,0,0,0,.72.44h-.07s0,0,.06,0l.15,0h0c9.12-1.57,17.82-3.24,25.21-5.31,9.76-2.75,17.27-6.23,24.95-9.8h0a2.91,2.91,0,0,1,1.21-.27,2.89,2.89,0,0,1,2.47,1.42c4.59,7.87,8.94,15.27,13.4,19.81,2.9,3,5.29,4.12,6.83,4.12h.12a2.92,2.92,0,0,0,2.15-1.14h0c2.85-3.2,4.74-12,6.84-22.24V-35h0a2.85,2.85,0,0,1,2.35-2.1l.42,0a2.85,2.85,0,0,1,2.52,1.53h0l.06.12.09.18C516-25.17,521.17-15.38,526.51-8.48A65.76,65.76,0,0,0,539.63,4.11a.75.75,0,0,0,.48.16.68.68,0,0,0,.36-.08.8.8,0,0,0,.34-.34A72.12,72.12,0,0,1,547.35-6h0c4.47-5.79,12.93-15.73,21.23-16.41h0a3.87,3.87,0,0,1,.48,0h.49c8.52,0,14.73,9.1,15.74,16.2,1.16,8.15-3.8,14.83-9.4,20.45-5.75,5.76-13,11.2-22.4,17.28S532.7,44.27,521.23,51l-.17.11a.72.72,0,0,0-.27.25h0c-24.05,18-47.69,35.83-66.88,62.9-19.37,27.34-34.27,64.23-41.7,96.93-7.39,32.53-7.32,60.58,8.28,94.34,15.72,34,47.22,73.9,78.09,100.32s60.83,39.29,91.3,52.4a2.83,2.83,0,0,1,1.48,1.47.86.86,0,0,0,.15.22h-.05l0,.05c12.85,29,25.85,58.38,31.36,83.67,5.55,25.45,3.57,46.94-3.11,62.29-6.78,15.6-18.3,24.61-36.21,29.51-12.44,3.4-28,4.85-42.46,5.38h-.08c-5.53.21-11,.27-16,.26h-1.4l-4.46,0h0l-4,0h-1c-2.15,0-4.2,0-6.16.08-9.93.37-17,2.09-23,8.53-8.94,9.71-15.54,30.16-22.31,52a.79.79,0,0,0,.13.71.77.77,0,0,0,.46.3h-.05c2.46,1.69,4.71,2.82,7.57,2.82h.44a13.08,13.08,0,0,0,2.41-.33c6.08-1.39,14.79-7.13,24.27-13.43h0l.08-.06a2.84,2.84,0,0,1,3.72.49c4.14,4.66,7.93,8.89,13.64,11.77a32.33,32.33,0,0,0,14.34,3.4l1.24,0a31.05,31.05,0,0,0,5.89-.79c8.12-1.88,16.65-7.29,25.74-13.1h0A2.84,2.84,0,0,1,564,693a2.88,2.88,0,0,1,2,.79h0l.06.06a.8.8,0,0,0,.19.13h0c3.83,3.67,7.45,7.06,14.4,9.75h0a57,57,0,0,0,19.49,3.68c.58,0,1.15,0,1.71,0h0a36.71,36.71,0,0,0,5.65-.64c8.76-1.74,16-7.16,23.83-13.11A2.85,2.85,0,0,1,633,693a2.78,2.78,0,0,1,1.34.34l.08,0c9.32,5,18.24,9.67,26.31,11.82a53.24,53.24,0,0,0,14,1.68c1.43,0,2.86,0,4.29-.08h0c1.12,0,2.22-.09,3.34-.15h0a.86.86,0,0,0,.51-.21c10.54-9.8,20-18.94,22.91-29.61,2.32-8.6.44-18.48-1.38-27.62h0l0-.16a.31.31,0,0,0,0-.08h0c-.47-2.35-.93-4.63-1.27-6.78h0v-.13c-1.67-10.55-.54-17.19.55-23.54h0v0a2.86,2.86,0,0,1,2-2.24h0l.24-.08h0c21-6.56,41.25-13,55.42-24.08h0c12.87-10.1,20.86-24.21,28.65-39.2h-.05a.81.81,0,0,0,.33-.6.79.79,0,0,0-.63-.85c-6.17-1.3-12.65-2.57-20.91-3.75l-2.11-.29h-.05l-.12,0h-.09l-.09,0L764,547.1h0c-9.32-1.32-21-3.3-28.3-10.57h0c-8.82-8.76-10.54-24-3.49-42.57,7-18.37,22.88-40.8,38.47-62.79l.25-.35a2.85,2.85,0,0,1,2.05-1.19l.15,0,.19,0h0c10.59-1,21.35-2.16,49.35-12.62,27.45-10.25,71.34-29.44,102.28-43l3.29-1.44.07,0h0c30.89-13.51,47-20.51,68.28-24.81,21.08-4.26,47.15-5.86,72.94-7.44h.37a2.84,2.84,0,0,1,2.11.94h0a2.88,2.88,0,0,1,.7,2.38c-2.14,13.31-4.18,26.11,2.23,44.72h0c6.52,18.88,21.78,43.81,38.41,64.55l0,0h0c3.35,4.17,6.8,8.23,10.21,12.23h0l0,0,0,0h0c3.34,3.92,6.63,7.79,9.84,11.79h0c9.67,12.06,18.39,25.07,23.62,42.4,8.63,28.61,7.61,68.78,6.61,108.29v.53h0a3,3,0,0,1-.3,1.21l0,.1h0c-4,8-8.45,16.65-24.6,20.13-8,1.72-18.94,2.17-29.82,2.61h-.29c-10.21.41-20.43.83-28.76,2.19-17.11,2.8-26.11,9.57-32.6,19.22-6.17,9.17-10.13,21-14,33.49a.81.81,0,0,0,.11.72.79.79,0,0,0,.6.32h0a18.24,18.24,0,0,0,6.76,1.43h.65a20.54,20.54,0,0,0,5.75-1.11c7.87-2.59,19.11-10,30.9-17.91h0a2.86,2.86,0,0,1,3.46.22l.1.08c8.19,7.17,15.87,13.84,23,16.8a22.8,22.8,0,0,0,8.65,1.81h.78a20.76,20.76,0,0,0,9.6-2.82c5.81-3.34,10.83-9.44,16.28-16.15h0l.1-.1a2.84,2.84,0,0,1,2.22-1.05,2.74,2.74,0,0,1,.56.06,2.84,2.84,0,0,1,2.18,2c2,6.73,3.63,12.15,10.63,15.32,4.4,2,11,3.15,17.55,3.16.7,0,1.43,0,2.13,0a37.2,37.2,0,0,0,10.07-1.6h0c7.58-2.52,10.25-8.09,13.38-14.89h0a2.92,2.92,0,0,1,1.84-1.56,2.86,2.86,0,0,1,.77-.1,2.9,2.9,0,0,1,1.6.49c10.82,7.38,20.9,14.17,30.33,15.76a25.28,25.28,0,0,0,4.11.36l.91,0h0c7.07-.26,13.65-3.76,18.41-11.17,6-9.28,9-24.68,7-39.53h0v-.11a127.78,127.78,0,0,0-3.13-14.52h0s-.12-.49-.22-.87a127.82,127.82,0,0,1-3-14.15,41.28,41.28,0,0,1,.56-15.94l0-.19h0c3.35-12.88,14.84-25.23,24.94-36.06l.45-.48c1.71-1.83,3.49-3.74,5.09-5.5,11.59-12.72,19.74-23.79,22.54-32.39,2.55-7.81.41-11.79-3-12.89h0a8.31,8.31,0,0,0-1.78-.37h-.06c-.38,0-.8-.05-1.24-.06l-.74,0a66.64,66.64,0,0,0-9.34,1.38l-.19,0a82.82,82.82,0,0,1-12.52,1.74h-.06l-1.42,0a27.94,27.94,0,0,1-5.56-.53h0c-11.52-2.38-19.35-13.17-22.22-22.87-3-10.05-.92-19.51,4.33-28,5.11-8.22,13.31-15.6,21.13-22.63l.25-.22a2.9,2.9,0,0,1,1.92-.73,2.83,2.83,0,0,1,1.55.46l.2.1h-.06c24.36,16,48.59,32,64.38,41.72l2.15,1.32.24.15.17.11,2.3,1.4c12.93,8,19.91,13.23,25.18,32.5,5.69,20.82,9.7,58.94,5.64,80.68-4.24,22.66-17.26,27.93-27.52,30.9-5.6,1.62-10.49,2.63-14.67,3.49h0c-3.27.67-6,1.23-8.41,1.93a70.65,70.65,0,0,0-8.08,3h0l-.23.1h0c-2.62,1.1-5.58,2.33-9.42,3.62l-2.47.8h0l-.06,0-.1,0c-.88.28-1.72.55-2.65.87h0C1301.36,658,1293,661.52,1286,670c-9.21,11.22-15.51,30.3-13.78,37h0c.43,1.65,1.39,2.5,3.66,2.5h.43c3.49-.13,8.24-2.09,12.17-4.38h0c6.71-3.91,9.76-8,13-12.36a2.85,2.85,0,0,1,2.14-1.15h.15a2.84,2.84,0,0,1,2.1.92h0c9.3,10.11,17.4,18.64,26.46,19h1.1c9.1-.33,19.84-8.21,31.74-17.11a2.84,2.84,0,0,1,3.41,0,.94.94,0,0,0,.22.12h-.06l.07.05h0c7.38,5.5,14.46,10.74,21.39,13.95a29.91,29.91,0,0,0,12.4,3.14l.82,0h0a20.56,20.56,0,0,0,6.46-1.32c6.68-2.53,13.6-8.87,21.11-15.82h0l0,0h0a2.87,2.87,0,0,1,3.71-.08.72.72,0,0,0,.21.12h-.06c6.78,5.5,13.1,10.55,22.35,12.72a70.93,70.93,0,0,0,15.73,1.46c2.25,0,4.58,0,7-.12,3.39-.13,6.83-.32,10.32-.54h.06a.81.81,0,0,0,.75-.61c1.27-5.35,1.74-10.46-2.48-17.76h0a112.32,112.32,0,0,0-7.44-10.58l-.05-.06h0l0,0h0l-.16-.21a155.61,155.61,0,0,1-11-15.89l0,0h0a66.16,66.16,0,0,1-5.13-10.93c-5.65-16-3.6-34.67,1.34-47.22,5.06-12.85,13.2-19.4,23.54-26.94h0c.89-.66,1.85-1.35,2.77-2h0l2.94-2.14c9.06-6.61,18.31-13.83,23.3-21.94,6.2-10.1,5.43-20.58,1.2-24.47-2.25-2.07-5.82-2.85-11.14-3.88h-.08l-.1,0-.16,0c-4.62-.9-10.13-2-15.41-4.88-11.18-6.12-20.58-19.84-27.08-39.17s-10.35-45.16-4-76.69c4.49-22,14-46.89,23.25-71.3h0l.07-.2c3.91-10.26,7.84-20.57,11.34-30.5,11.88-33.69,19.34-64.39,22.78-93.47s2.81-56.34-6.58-84-27.78-56.18-46.38-84.93a2.87,2.87,0,0,1,.49-3.69c28.8-25.8,56.39-50.69,60.65-85.07v-.09h0c4.22-34.44-14.92-78.77-60.21-97.56-22.31-9.26-51.12-12.39-81-12.46-6.43,0-12.91.11-19.4.35-24.87.91-49.49,3.45-70.78,5.8-9.46,1-18.31,2.06-26.48,3l-1,.12c-6.77.78-13.07,1.5-19.06,2.16-16.72,1.84-30.59,3.18-42.46,3.62-2.87.1-5.64.16-8.31.15-3.68,0-7.16-.13-10.49-.38-23.5-1.76-39.29-10-46.5-22.08h0a1.57,1.57,0,0,0-.13-.26h0c-3.42-5.87-4.7-12.45-5.72-17.75h0l0-.21c-.83-4.28-1.46-7.41-2.6-9.46h0a.46.46,0,0,0-.08-.19,5.38,5.38,0,0,0-.93-1.2h-.06l0-.08a5.94,5.94,0,0,0-3.94-1.15h-.49c-5.22.19-12.63,3.57-18.49,8.1h0c-8.15,6.29-12.76,14.38-17.65,23a2.85,2.85,0,0,1-2.49,1.45h0a2.84,2.84,0,0,1-2.48-1.53h0l-.63-1.2h0l-.65-1.22c-7.75-14.69-16-31-9.89-43.92h0c5.53-11.78,22.82-19.87,40.08-27.1h-.08a.79.79,0,0,0,.73-.58.8.8,0,0,0-.32-.89c-10-6.65-19.9-12.36-31.52-13.86a51.93,51.93,0,0,0-6.67-.42c-.79,0-1.59,0-2.4,0-11.59.42-23.63,4-31.81,8.63-10.18,5.74-14.47,13.06-19.07,21h0a2.84,2.84,0,0,1-1.85,1.35h0a3.23,3.23,0,0,1-.61.06,2.88,2.88,0,0,1-1.63-.51l-.49-.35h0s-.13-.08-.49-.34h0c-10.38-7.23-21.69-15.36-24.42-29.6s3.28-34.48,14.68-45.46a39.66,39.66,0,0,1,26.14-10.7q.84,0,1.68,0a39.49,39.49,0,0,1,12.17,1.89h0c10.76,3.54,17,11.64,22.3,19.4a.78.78,0,0,0,.66.35l.24,0,.06,0h0c6.44-2.07,11.49-4.37,14-10.94,3.14-8.2,2.52-23,1.78-38.77a2.88,2.88,0,0,1,1.07-2.37h0a2.83,2.83,0,0,1,1.8-.62,2.76,2.76,0,0,1,.75.1h0l.57.16.58.16h0c18.86,5.23,38.63,10.84,51.51,24.71,13.14,14.16,18.89,36.59,15.72,54.95v.14h0c-2.69,15.4-11.65,27.85-21.23,39.41a.8.8,0,0,0-.11.85.79.79,0,0,0,.72.46h.07c15.5-1.23,30.06-3.51,42.52-12.66,14.87-10.92,27-31.84,30.06-48.9v-.14h0c3-16.61-2.61-29.65-8.63-43.45h0l-.06-.25a2.86,2.86,0,0,1,.54-3.09,2.86,2.86,0,0,1,2.09-.91,2.91,2.91,0,0,1,1,.18h0l0,0h0l.47.17c12,4.32,24.55,8.92,34.86,19.39s18.52,27.07,17.09,43.25v.07h0c-1.34,14.91-10.89,29.07-20.43,42.48a.78.78,0,0,0-.06.83.8.8,0,0,0,.56.42h0a18.87,18.87,0,0,0,11,3.45h.94c.52,0,1-.06,1.61-.11,8.4-.83,21-5.84,29.35-14.51h0c8.37-8.67,12.75-21.13,17.36-34.4h0a2.82,2.82,0,0,1,2.47-1.91l.24,0a2.86,2.86,0,0,1,2.5,1.5c7.5,13.8,14.66,26.87,28,35.67h0c11.24,7.43,27,11.93,43.86,16l.19,0a.79.79,0,0,0,.49-.17.78.78,0,0,0,.31-.63h0a.72.72,0,0,0-.1-.38h0l-.06-.09h0a68,68,0,0,1-7.3-13.48h0a.6.6,0,0,0-.06-.27c-4.24-10.45-7.93-25.59-11.56-40.45l-.06-.25a2.86,2.86,0,0,1,1.32-3.13,2.85,2.85,0,0,1,1.47-.4,2.87,2.87,0,0,1,1.91.73h0c20.26,18.32,40.43,36.55,61.42,53.2h0c21,16.69,42.52,31.48,64.91,37.61a91.78,91.78,0,0,0,23.81,3.28c1.1,0,2.19,0,3.28-.06,12.8-.47,24.43-3.88,33-9.93a45.56,45.56,0,0,0,18.44-43.57h0v-.14c-2.55-15.48-14.12-28.18-25.64-31.35h0a23.27,23.27,0,0,0-6.27-.85c-.33,0-.65,0-1,0-9,.33-17.58,5.48-22.48,11.87-6.14,8-6.58,18.1-7,29.32a2.88,2.88,0,0,1-2.66,2.76h-.06c-.73,0-1.52.11-2.35.14h-.06c-.38,0-.78,0-1.17,0-4.53,0-9.89-1.08-19.22-6.17h0l-.08,0c-12-6.54-30.74-19.84-52.21-36.87h0c-6.54-5.18-13.37-10.75-20.45-16.52l-.15-.12c-7.86-6.41-15.9-13-24.52-19.8h0c-9.13-7.24-18.79-14.7-28.9-22.08h0c-28.26-20.63-60.49-41.07-109.29-54.1-31.56-8.42-70.06-13.75-107.38-13.84Zm0,0" transform="translate(-113.72 478.53)"/><path d="M315.77-467.75l-.13,0c-28.36,14.51-55.77,30.33-78.62,64.29-25.14,37.35-45,96.94-54.46,183.3h0c-9.53,86.39-8.73,199.2-7.92,312.34a3.39,3.39,0,0,1-1,2.44h0a3.34,3.34,0,0,1-2.37,1h-.08c-2.39-.06-4.72-.12-7-.13-8.6,0-16.57.72-24,4.81-9.64,5.28-18.34,16.06-19.26,28a.3.3,0,0,0,0,.16h0A33.5,33.5,0,0,0,122.52,141a48.33,48.33,0,0,0,15.22,22c10.95,8.95,25.86,12.93,41.74,17.1a3.38,3.38,0,0,1,1.31,5.87l0,0h0c-4.17,3.47-6.34,5.59-6.44,7.87a.29.29,0,0,0,0,.16h0a6.87,6.87,0,0,0,.38,2.09h0c.89,2.78,3.06,6.05,5.64,9.91a3.38,3.38,0,0,1-1.85,5.12c-7.91,2.35-13.46,4.24-15.36,7.6-1.09,1.91-1.21,5-.07,8.51a20.9,20.9,0,0,0,2.76,5.53c3.24,4.6,8.19,7.44,14,10.69a3.38,3.38,0,0,1,.78,5.29c-5.42,5.66-8.68,9.47-8.34,12.71a6,6,0,0,0,.22,1h0c1.13,3.5,5.52,7.46,11.22,12.41a3.38,3.38,0,0,1,.86,4c-3.11,6.83-5.18,11.82-3.93,15.71a.24.24,0,0,0,.09.13h-.05l0,0a.34.34,0,0,0,.09.14h-.05c1.52,4.06,7,7.8,14.13,12.47a3.38,3.38,0,0,1,.36,5.4L192.57,315l-.1.21,0,14.35a3.37,3.37,0,0,1-1.59,2.86,3.42,3.42,0,0,1-1.8.52,3.34,3.34,0,0,1-1.47-.35h0c-8.54-4.15-16.07-7.72-22.28-7.79h-.16a12.79,12.79,0,0,0-12.46,8.5,18.56,18.56,0,0,0-.52,11.92,10.73,10.73,0,0,0,4,5.68c4.08,2.84,11.17,3.53,19.84,3.56,3.52,0,7.3-.1,11.27-.22h.12a3.36,3.36,0,0,1,3.14,2.16.23.23,0,0,0,.1.12h0c.25.64.53,1.39.77,2.14a.3.3,0,0,0,.09.13h0c1.1,3.51,1.39,7.59-2,12.57h0c-3.3,4.89-10.39,10.92-17.42,16.71a.28.28,0,0,0-.08.31.28.28,0,0,0,.26.18h-.09c5.82,7.38,11.65,15.31,14.59,24.45.1.29.17.54.26.85l.08.11h0a52.92,52.92,0,0,1-1,31.88h0c-3.36,9.05-9.22,14.71-14.54,19.83h0l-.16.16a3.45,3.45,0,0,1-2.36.94h-.26a3.37,3.37,0,0,1-2.43-1.34c-4.68-6.2-8.61-11.24-13.56-13.14a13.58,13.58,0,0,0-4.85-.89,13.36,13.36,0,0,0-9.77,4c-3.61,3.86-5.26,10.9-3.11,17.59h0c.06.18.09.28.16.46h0c2.37,6.8,8.83,13.25,16.46,17s16.13,4.61,25.43,5.57a3.39,3.39,0,0,1,2.53,5.14h0l-.19.32c-3.19,5.18-6.68,10.79-12.33,15.65a70.23,70.23,0,0,1-10.76,7.34.28.28,0,0,0,.13.52h0l31.6,4.41a3.38,3.38,0,0,1,2.82,2.59c1.05,4.51,2.05,8.87,3.34,12.87h0a42.2,42.2,0,0,0,3.94,9c3.49,5.68,8.22,8.77,12.13,8.78h.22c4-.1,8.68-3.5,11.74-9s4.09-12.31,5.26-20v0h0a3.4,3.4,0,0,1,2.84-2.8l34.52-5.17h0a.28.28,0,0,0,.26-.2.29.29,0,0,0-.11-.3,147.23,147.23,0,0,1-15.37-11.68,43.16,43.16,0,0,1-10.18-13.9h0a3.39,3.39,0,0,1,2.53-4.89c10.78-1.56,20.95-3.05,29.63-7.11,8.86-4.15,15.39-10.56,16.58-16.92a15.24,15.24,0,0,0-.58-7.31h0a.32.32,0,0,1,0-.09,21.19,21.19,0,0,0-7.6-10.48,16,16,0,0,0-9.19-3,11.81,11.81,0,0,0-5.9,1.39c-3.26,1.9-4.53,5.78-6.15,11.57a3.38,3.38,0,0,1-2.13,2.28h0a3.41,3.41,0,0,1-1.14.19,3.36,3.36,0,0,1-1.94-.62l-.18-.12-.46-.33c-6.54-4.62-13.67-9.72-18-16.58h0a29,29,0,0,1-3.16-6.7c-1.92-6-1.9-12.7.47-20.06,3-9.23,9.7-19.64,16.44-29.69h-.09a.29.29,0,0,0,.25-.19.29.29,0,0,0-.08-.3c-6.09-5.6-12.3-11.55-15.82-17.45h0l0-.14a30.23,30.23,0,0,1-2.73-6.11,50.12,50.12,0,0,1-1.94-13.33v-.17a3.38,3.38,0,0,1,3.39-3.55,3.28,3.28,0,0,1,1.3.26c8.9,3.73,16.77,6.93,23.45,6.95a18.42,18.42,0,0,0,3-.23c7.18-1.17,12.92-7.1,13.88-12.45a9.54,9.54,0,0,0-.29-4.51h0l0-.09c-1.07-3.35-4.1-6.57-9-8.25A37.09,37.09,0,0,0,252,330c-5.62,0-12,.61-18.84,1.29a2.06,2.06,0,0,1-.35,0,3.37,3.37,0,0,1-3.3-2.72L227.81,320a3.38,3.38,0,0,1,3.3-4,48,48,0,0,0,10.34-.8,34.45,34.45,0,0,0,8.4-3.72,3.32,3.32,0,0,1,1.64-.43,3.42,3.42,0,0,1,1.87.57h0c2.82,1.87,4.75,3.07,6.88,3.25h0l.56,0a16.18,16.18,0,0,0,7-2,21.52,21.52,0,0,0,5.09-3.95,3.38,3.38,0,0,1,4.72,0L293,324.09a3.42,3.42,0,0,1,.87,1.46h0l0,.07a.25.25,0,0,0,.08.14h0A84.66,84.66,0,0,1,298,352c0,4.47-.18,9.62-.41,14.86h0a.3.3,0,0,0,0,.1c-.25,5.72-.5,11.62-.46,17.05,0,3.32.16,6.42.46,9.21v0a47.71,47.71,0,0,0,1.93,9.4c1.83,5.69,4.45,9.23,6.72,11.26a10.63,10.63,0,0,0,5.24,2.72h.05a.28.28,0,0,0,.18-.06.29.29,0,0,0,.1-.22h0c.09-3.71.87-7.88,4.35-11.52a21,21,0,0,1,15.05-6.09,24.29,24.29,0,0,1,9.28,1.92c9.94,4.09,20.84,15.45,31,27.05,1.17,1.34,2.18,2.5,3.34,3.85.2.24.45.52.46.52h0l2.91,3.33c8.16,9.32,16.39,18,26.58,23.28a50.24,50.24,0,0,0,23.27,5.76A55.63,55.63,0,0,0,451,459.4c16.78-7.49,34.24-23.84,52.3-41h-.06a.27.27,0,0,0,.25-.19.28.28,0,0,0-.09-.31h0q-4.44-3.47-8.89-7.28c-31.44-26.92-63.55-67.49-79.7-102.45-1.26-2.72-2.43-5.44-3.49-8.09h0a.29.29,0,0,0-.11-.31,3.67,3.67,0,0,1-.6-.52h0l-.54-.61c-16.13-17.79-32.24-35.54-52.93-55.62-20.93-20.32-46.58-43.07-72.29-65.87a3.35,3.35,0,0,1-1.13-2.8h0a3.35,3.35,0,0,1,1.56-2.58c13.86-8.82,26-16.75,29.54-28.78l0-.08h0c1.83-6.37,1.33-14.22-1.05-21.61A39.64,39.64,0,0,0,304,104.92c-8.88-8.47-21.76-9.17-36.4-9.78a3.39,3.39,0,0,1-3.24-3.49v-.16c4.83-150.54,9.67-301.24,18.76-395.78,8.44-87.73,20.55-127.24,32.93-163.1v-.09a.27.27,0,0,0-.27-.27Zm0,0" transform="translate(-113.72 478.53)"/></svg>